<svg xmlns="http://www.w3.org/2000/svg" width="27.333" height="27.333" viewBox="0 0 27.333 27.333"><defs><style>.a{fill:#ded8d0;}.b{fill:#c9c4bd;}.c{fill:#f5a947;}.d{fill:#f09d3a;}.e{fill:#e34e4b;}.f{fill:#50b6cf;}.g{fill:#0d0f23;}</style></defs><g transform="translate(-2 -2)"><path class="a" d="M24.508,8A1.792,1.792,0,0,1,26.3,9.792V27.555a1.792,1.792,0,0,1-1.792,1.792H4.792A1.792,1.792,0,0,1,3,27.555V9.792A1.792,1.792,0,0,1,4.792,8Z" transform="translate(-0.552 -3.311)"/><path class="b" d="M4.792,41.49H24.508A1.792,1.792,0,0,0,26.3,39.7V30C22.06,34.639,14.886,38.052,3,38.69V39.7A1.792,1.792,0,0,0,4.792,41.49Z" transform="translate(-0.552 -15.453)"/><circle class="c" cx="5" cy="5" r="5" transform="translate(19.333 19.333)"/><path class="d" d="M49.1,42.209A4.922,4.922,0,0,1,42.209,49.1,4.925,4.925,0,1,0,49.1,42.209Z" transform="translate(-22.192 -22.192)"/><path class="e" d="M26.3,12.481H3V9.792A1.792,1.792,0,0,1,4.792,8H24.508A1.792,1.792,0,0,1,26.3,9.792Z" transform="translate(-0.552 -3.311)"/><path class="c" d="M10.9,7.481a.9.9,0,0,1-.9-.9V3.9a.9.9,0,1,1,1.792,0V6.585A.9.9,0,0,1,10.9,7.481Z" transform="translate(-4.415 -0.552)"/><path class="c" d="M21.9,7.481a.9.9,0,0,1-.9-.9V3.9a.9.9,0,1,1,1.792,0V6.585A.9.9,0,0,1,21.9,7.481Z" transform="translate(-10.486 -0.552)"/><path class="c" d="M33.9,7.481a.9.9,0,0,1-.9-.9V3.9a.9.9,0,0,1,1.792,0V6.585A.9.9,0,0,1,33.9,7.481Z" transform="translate(-17.109 -0.552)"/><path class="c" d="M44.9,7.481a.9.9,0,0,1-.9-.9V3.9a.9.9,0,1,1,1.792,0V6.585A.9.9,0,0,1,44.9,7.481Z" transform="translate(-23.18 -0.552)"/><path class="f" d="M9,23h2.689v2.689H9Z" transform="translate(-3.863 -11.59)"/><path class="f" d="M20,23h2.689v2.689H20Z" transform="translate(-9.934 -11.59)"/><path class="f" d="M31,23h2.689v2.689H31Z" transform="translate(-16.005 -11.59)"/><path class="f" d="M42,23h2.689v2.689H42Z" transform="translate(-22.076 -11.59)"/><path class="f" d="M9,34h2.689v2.689H9Z" transform="translate(-3.863 -17.661)"/><path class="f" d="M20,34h2.689v2.689H20Z" transform="translate(-9.934 -17.661)"/><path class="f" d="M31,34h2.689v2.689H31Z" transform="translate(-16.005 -17.661)"/><path class="f" d="M42,34h2.689v2.689H42Z" transform="translate(-22.076 -17.661)"/><path class="f" d="M9,45h2.689v2.689H9Z" transform="translate(-3.863 -23.732)"/><path class="f" d="M20,45h2.689v2.689H20Z" transform="translate(-9.934 -23.732)"/><path class="f" d="M31,45h2.689v2.689H31Z" transform="translate(-16.005 -23.732)"/><g transform="translate(2 2)"><path class="g" d="M26.2,19.075V6.481a2.243,2.243,0,0,0-2.24-2.24h-.9v-.9a1.344,1.344,0,0,0-2.689,0v.9h-2.24v-.9a1.344,1.344,0,1,0-2.689,0v.9H12.754v-.9a1.344,1.344,0,0,0-2.689,0v.9H7.825v-.9a1.344,1.344,0,1,0-2.689,0v.9h-.9A2.243,2.243,0,0,0,2,6.481V24.4a2.243,2.243,0,0,0,2.24,2.24H19.307a5.373,5.373,0,1,0,6.89-7.57ZM21.268,3.344a.448.448,0,0,1,.9,0V6.033a.448.448,0,0,1-.9,0Zm-4.929,0a.448.448,0,0,1,.9,0V6.033a.448.448,0,0,1-.9,0Zm-5.377,0a.448.448,0,1,1,.9,0V6.033a.448.448,0,1,1-.9,0Zm-4.929,0a.448.448,0,1,1,.9,0V6.033a.448.448,0,0,1-.9,0ZM4.24,5.137h.9v.9a1.344,1.344,0,0,0,2.689,0v-.9h2.24v.9a1.344,1.344,0,0,0,2.689,0v-.9h2.689v.9a1.344,1.344,0,0,0,2.689,0v-.9h2.24v.9a1.344,1.344,0,0,0,2.689,0v-.9h.9A1.346,1.346,0,0,1,25.3,6.481v2.24H2.9V6.481A1.346,1.346,0,0,1,4.24,5.137Zm0,20.612A1.346,1.346,0,0,1,2.9,24.4V9.618H25.3v9.139a5.117,5.117,0,0,0-2.24-.1V16.339a.448.448,0,0,0-.448-.448H19.924a.448.448,0,0,0-.448.448v2.689a.448.448,0,0,0,.448.448H20.99a5.347,5.347,0,0,0-2.1,6.273Zm17.924-7.169H20.372V16.787h1.792Zm1.792,9.858a4.481,4.481,0,1,1,4.481-4.481A4.486,4.486,0,0,1,23.956,28.437Z" transform="translate(-2 -2)"/><path class="g" d="M48.344,45.813V43h-.9v2.813a.856.856,0,0,0-.435.9l-1.638,1.31.56.7,1.636-1.309a.893.893,0,0,0,.772-1.605Z" transform="translate(-25.939 -24.628)"/><path class="g" d="M11.137,22H8.448A.448.448,0,0,0,8,22.448v2.689a.448.448,0,0,0,.448.448h2.689a.448.448,0,0,0,.448-.448V22.448A.448.448,0,0,0,11.137,22Zm-.448,2.689H8.9V22.9h1.792Z" transform="translate(-5.311 -13.038)"/><path class="g" d="M22.137,22H19.448a.448.448,0,0,0-.448.448v2.689a.448.448,0,0,0,.448.448h2.689a.448.448,0,0,0,.448-.448V22.448A.448.448,0,0,0,22.137,22Zm-.448,2.689H19.9V22.9h1.792Z" transform="translate(-11.382 -13.038)"/><path class="g" d="M33.137,22H30.448a.448.448,0,0,0-.448.448v2.689a.448.448,0,0,0,.448.448h2.689a.448.448,0,0,0,.448-.448V22.448A.448.448,0,0,0,33.137,22Zm-.448,2.689H30.9V22.9h1.792Z" transform="translate(-17.453 -13.038)"/><path class="g" d="M41.448,25.585h2.689a.448.448,0,0,0,.448-.448V22.448A.448.448,0,0,0,44.137,22H41.448a.448.448,0,0,0-.448.448v2.689A.448.448,0,0,0,41.448,25.585ZM41.9,22.9h1.792v1.792H41.9Z" transform="translate(-23.524 -13.038)"/><path class="g" d="M11.137,33H8.448A.448.448,0,0,0,8,33.448v2.689a.448.448,0,0,0,.448.448h2.689a.448.448,0,0,0,.448-.448V33.448A.448.448,0,0,0,11.137,33Zm-.448,2.689H8.9V33.9h1.792Z" transform="translate(-5.311 -19.109)"/><path class="g" d="M22.137,33H19.448a.448.448,0,0,0-.448.448v2.689a.448.448,0,0,0,.448.448h2.689a.448.448,0,0,0,.448-.448V33.448A.448.448,0,0,0,22.137,33Zm-.448,2.689H19.9V33.9h1.792Z" transform="translate(-11.382 -19.109)"/><path class="g" d="M33.137,33H30.448a.448.448,0,0,0-.448.448v2.689a.448.448,0,0,0,.448.448h2.689a.448.448,0,0,0,.448-.448V33.448A.448.448,0,0,0,33.137,33Zm-.448,2.689H30.9V33.9h1.792Z" transform="translate(-17.453 -19.109)"/><path class="g" d="M11.137,44H8.448A.448.448,0,0,0,8,44.448v2.689a.448.448,0,0,0,.448.448h2.689a.448.448,0,0,0,.448-.448V44.448A.448.448,0,0,0,11.137,44Zm-.448,2.689H8.9V44.9h1.792Z" transform="translate(-5.311 -25.18)"/><path class="g" d="M22.137,44H19.448a.448.448,0,0,0-.448.448v2.689a.448.448,0,0,0,.448.448h2.689a.448.448,0,0,0,.448-.448V44.448A.448.448,0,0,0,22.137,44Zm-.448,2.689H19.9V44.9h1.792Z" transform="translate(-11.382 -25.18)"/><path class="g" d="M33.137,44H30.448a.448.448,0,0,0-.448.448v2.689a.448.448,0,0,0,.448.448h2.689a.448.448,0,0,0,.448-.448V44.448A.448.448,0,0,0,33.137,44Zm-.448,2.689H30.9V44.9h1.792Z" transform="translate(-17.453 -25.18)"/></g></g></svg>