<svg xmlns="http://www.w3.org/2000/svg" width="59" height="59" viewBox="0 0 59 59"><defs><style>.a{fill:#eb6107;}</style></defs><g transform="translate(-285 61)"><g transform="translate(285 -61)"><path class="a" d="M29.615,0A29.616,29.616,0,0,0,0,29.385,29.813,29.813,0,0,0,29.615,59a29.5,29.5,0,0,0,0-59ZM44.16,39.04a3.458,3.458,0,1,1-4.891,4.891l-9.654-9.658-9.886,9.659a3.458,3.458,0,0,1-4.891-4.891L24.5,29.385l-9.657-9.657a3.458,3.458,0,0,1,4.891-4.891L29.615,24.5l9.654-9.659a3.458,3.458,0,1,1,4.891,4.891L34.5,29.385Z"/></g></g></svg>