<svg xmlns="http://www.w3.org/2000/svg" width="15.786" height="15.786" viewBox="0 0 15.786 15.786"><defs><style>.a{fill:#eb6107;}</style></defs><g transform="translate(0 -0.008)"><path class="a" d="M284.074,208.995h-6.248a.493.493,0,1,1,0-.987h6.248a.493.493,0,1,1,0,.987Zm0,0" transform="translate(-268.782 -201.587)"/><path class="a" d="M400.5,133.891a.494.494,0,0,1-.349-.843l2.118-2.118-2.118-2.118a.493.493,0,1,1,.7-.7l2.466,2.466a.493.493,0,0,1,0,.7l-2.466,2.466A.49.49,0,0,1,400.5,133.891Zm0,0" transform="translate(-387.672 -124.017)"/><path class="a" d="M5.262,15.793a1.355,1.355,0,0,1-.408-.061L.9,14.414A1.328,1.328,0,0,1,0,13.163V1.324A1.317,1.317,0,0,1,1.315.008a1.357,1.357,0,0,1,.408.061L5.681,1.388a1.327,1.327,0,0,1,.9,1.251V14.478a1.317,1.317,0,0,1-1.315,1.315ZM1.315.995a.33.33,0,0,0-.329.329V13.163a.342.342,0,0,0,.228.317l3.94,1.313a.357.357,0,0,0,.107.014.33.33,0,0,0,.329-.329V2.639a.342.342,0,0,0-.228-.317L1.422,1.009A.357.357,0,0,0,1.315.995Zm0,0" transform="translate(0 0)"/><path class="a" d="M35.876,5.27a.493.493,0,0,1-.493-.493V1.817a.823.823,0,0,0-.822-.822h-7.4a.493.493,0,1,1,0-.987h7.4a1.81,1.81,0,0,1,1.809,1.809v2.96A.493.493,0,0,1,35.876,5.27Zm0,0" transform="translate(-25.846 0)"/><path class="a" d="M184.456,282.6h-2.631a.493.493,0,0,1,0-.987h2.631a.823.823,0,0,0,.822-.822v-2.96a.493.493,0,0,1,.987,0v2.96A1.81,1.81,0,0,1,184.456,282.6Zm0,0" transform="translate(-175.742 -268.782)"/></g></svg>