<svg xmlns="http://www.w3.org/2000/svg" width="35.6" height="28.438" viewBox="0 0 35.6 28.438"><defs><style>.a{fill:#eb6107;}</style></defs><path class="a" d="M35.489,64.757,34.157,55.9a5.173,5.173,0,0,0-5.115-4.4H6.558a5.173,5.173,0,0,0-5.115,4.4C1.173,57.68,0,65.343,0,65.822A5.171,5.171,0,0,0,2.585,70.3a5.167,5.167,0,0,0,2.584,9.643H30.431A5.167,5.167,0,0,0,33.015,70.3,5.168,5.168,0,0,0,35.489,64.757ZM1.405,65.5l.073-.488a3.784,3.784,0,0,1,3.69-2.97H30.431a3.784,3.784,0,0,1,3.69,2.971l.073.487a4.03,4.03,0,0,1-4.039,4.1H5.445a4.035,4.035,0,0,1-4.039-4.1ZM6.558,52.891H29.042a3.783,3.783,0,0,1,3.74,3.219l.851,5.659a5.142,5.142,0,0,0-3.2-1.116H5.169a5.142,5.142,0,0,0-3.2,1.116l.851-5.659a3.782,3.782,0,0,1,3.74-3.219ZM34.209,74.769a3.783,3.783,0,0,1-3.778,3.778H5.169a3.778,3.778,0,1,1,0-7.557H30.431A3.782,3.782,0,0,1,34.209,74.769Z" transform="translate(0 -51.5)"/><path class="a" d="M70.679,226.076H53.295a2.184,2.184,0,1,0,0,4.367H70.679a2.184,2.184,0,1,0,0-4.367Zm0,2.977H53.295a.793.793,0,1,1,0-1.586H70.679a.793.793,0,0,1,0,1.586Z" transform="translate(-47.557 -213.938)"/><path class="a" d="M70.679,354.756H53.295a2.184,2.184,0,1,0,0,4.367H70.679a2.184,2.184,0,1,0,0-4.367Zm0,2.977H53.295a.793.793,0,1,1,0-1.586H70.679a.793.793,0,1,1,0,1.586Z" transform="translate(-47.557 -333.671)"/><path class="a" d="M395.831,224.8a2.443,2.443,0,1,0-2.443,2.443A2.445,2.445,0,0,0,395.831,224.8Zm-2.443,1.052a1.052,1.052,0,1,1,1.052-1.052A1.053,1.053,0,0,1,393.389,225.848Z" transform="translate(-363.763 -210.473)"/><path class="a" d="M390.946,353.477a2.443,2.443,0,1,0,2.443-2.443A2.445,2.445,0,0,0,390.946,353.477Zm3.495,0a1.052,1.052,0,1,1-1.052-1.052A1.053,1.053,0,0,1,394.441,353.477Z" transform="translate(-363.763 -330.207)"/><path class="a" d="M110.407,91.9h12.327a.7.7,0,0,0,0-1.391H110.407a.7.7,0,1,0,0,1.391Z" transform="translate(-102.084 -87.795)"/><path class="a" d="M327.694,91.9h0a.7.7,0,1,0-.7-.7A.694.694,0,0,0,327.7,91.9Z" transform="translate(-304.263 -87.795)"/></svg>