<svg xmlns="http://www.w3.org/2000/svg" width="16.004" height="16.003" viewBox="0 0 16.004 16.003"><defs><style>.a{fill:#eb6107;}</style></defs><g transform="translate(0 -0.011)"><g transform="translate(0 0.011)"><path class="a" d="M13.783,2.473a8,8,0,1,0-11.321,11.3s.006.011.011.015c.046.045.1.082.143.125.129.114.257.233.393.343.073.057.148.114.222.167.128.1.256.191.39.279.091.057.185.114.278.171.123.074.246.149.374.217.108.057.218.106.328.158s.238.114.361.166.246.091.371.136.232.086.351.122c.135.041.273.072.41.106.114.028.225.06.343.083.158.031.318.051.478.073.1.014.2.033.3.043.262.026.526.04.792.04s.53-.014.792-.04c.1-.01.2-.029.3-.043.16-.022.32-.042.478-.073.114-.023.229-.057.343-.083.137-.034.275-.065.41-.106.119-.037.235-.081.351-.122s.249-.086.371-.136.241-.109.361-.166.22-.1.328-.158c.127-.068.25-.143.374-.217.093-.057.187-.109.278-.171.134-.088.262-.183.39-.279.074-.057.15-.109.222-.167.135-.109.264-.224.393-.343.047-.043.1-.081.143-.125,0,0,.006-.011.011-.015A7.989,7.989,0,0,0,13.783,2.473ZM12.5,13.171c-.1.091-.211.178-.32.262-.064.049-.128.1-.194.145-.1.075-.209.146-.315.214-.078.05-.157.1-.237.145l-.306.171c-.091.047-.185.091-.278.134s-.2.09-.3.13-.209.079-.314.114-.193.067-.291.1c-.114.034-.234.062-.352.091-.093.022-.184.046-.278.065-.135.026-.274.045-.413.063-.079.01-.157.025-.237.033-.219.021-.442.034-.666.034s-.447-.013-.666-.034c-.079-.008-.158-.022-.237-.033-.139-.019-.277-.037-.413-.063-.094-.018-.185-.043-.278-.065-.118-.029-.236-.057-.352-.091-.1-.029-.194-.063-.291-.1s-.211-.074-.314-.114-.2-.085-.3-.13-.187-.087-.278-.134-.206-.11-.306-.171c-.08-.047-.159-.095-.237-.145-.107-.068-.212-.139-.315-.214-.066-.047-.13-.1-.194-.145-.109-.084-.216-.171-.32-.262-.025-.019-.048-.043-.073-.065A4.584,4.584,0,0,1,6.544,8.824a3.388,3.388,0,0,0,2.911,0,4.584,4.584,0,0,1,3.116,4.282C12.546,13.128,12.524,13.15,12.5,13.171ZM6.007,4.592A2.286,2.286,0,1,1,9.119,7.7a.012.012,0,0,0-.01,0,2.421,2.421,0,0,1-.478.2c-.03.009-.057.02-.089.027-.057.015-.117.025-.176.035a2.315,2.315,0,0,1-.335.034H7.967a2.314,2.314,0,0,1-.335-.034c-.057-.01-.118-.021-.176-.035-.03-.007-.057-.019-.089-.027a2.419,2.419,0,0,1-.478-.2l-.01,0A2.286,2.286,0,0,1,6.007,4.592Zm7.577,7.382h0a5.742,5.742,0,0,0-3.059-3.938,3.428,3.428,0,1,0-5.051,0,5.742,5.742,0,0,0-3.059,3.938,6.857,6.857,0,1,1,11.169,0Z" transform="translate(0 -0.011)"/></g></g></svg>