<svg xmlns="http://www.w3.org/2000/svg" width="31.645" height="31.646" viewBox="0 0 31.645 31.646"><defs><style>.a{fill:#eb6107;}</style></defs><g transform="translate(0)"><path class="a" d="M15.825,0A15.823,15.823,0,1,0,31.647,15.822,15.84,15.84,0,0,0,15.825,0Zm0,29.377A13.555,13.555,0,1,1,29.379,15.822,13.57,13.57,0,0,1,15.825,29.377Z" transform="translate(-0.002)"/><path class="a" d="M103.975,50.9H96.539V42.768a1.134,1.134,0,1,0-2.268,0V52.03a1.134,1.134,0,0,0,1.134,1.134h8.57a1.134,1.134,0,1,0,0-2.268Z" transform="translate(-80.016 -35.338)"/></g></svg>